<mxfile host="app.diagrams.net" modified="2023-05-05T12:42:58.464Z" agent="Mozilla/5.0 (Windows NT 10.0; Win64; x64) AppleWebKit/537.36 (KHTML, like Gecko) Chrome/112.0.0.0 Safari/537.36" version="21.2.9" etag="4Ux6omf9dhfEzeRk8wgm" type="github">
  <diagram name="第 1 页" id="CdzC-Nyqhoyh3XvEmmsK">
    <mxGraphModel>
      <root>
        <mxCell id="0" />
        <mxCell id="1" parent="0" />
      </root>
    </mxGraphModel>
  </diagram>
</mxfile>
